<?xml version="1.0"?>
<svg width="16" height="16" viewBox="0 0 16 16" fill="none" xmlns="http://www.w3.org/2000/svg">
<g clip-path="url(#clip0_1953_1873)">
<path d="M7.23692 0.177641C7.71913 -0.0592136 8.28084 -0.0592135 8.76305 0.177641L13.7682 2.63607C14.2504 2.87293 14.6006 3.32086 14.7197 3.85306L15.9559 9.37712C16.075 9.90932 15.95 10.4679 15.6163 10.8947L12.1526 15.3246C11.8189 15.7514 11.3128 16 10.7776 16H5.22235C4.68714 16 4.18105 15.7514 3.84735 15.3246L0.383707 10.8947C0.0500069 10.4679 -0.0749862 9.90932 0.04411 9.37712L1.28027 3.85306C1.39937 3.32086 1.74959 2.87293 2.2318 2.63607L7.23692 0.177641Z" fill="#06AAB3"/>
<path d="M14.1969 2.93262C14.4555 3.17564 14.6398 3.49516 14.7198 3.85271L15.956 9.37676C16.0751 9.90897 15.9501 10.4675 15.6164 10.8943L12.1527 15.3243C11.819 15.7511 11.313 15.9996 10.7777 15.9996H7.78906L14.1969 2.93262Z" fill="#39CDC7"/>
<path d="M8.21102 15.9998H5.22235C4.68714 15.9998 4.18105 15.7512 3.84735 15.3244L0.383707 10.8944C0.0500069 10.4676 -0.0749862 9.90908 0.04411 9.37688L1.28027 3.85283C1.37797 3.41624 1.63121 3.03636 1.98525 2.7832L8.21102 15.9998Z" fill="#07777C"/>
<path fill-rule="evenodd" clip-rule="evenodd" d="M6.29306 4.02197L7.00435 5.29997C7.13864 5.54126 7.0519 5.84573 6.81061 5.98002C6.56932 6.11431 6.26486 6.02757 6.13056 5.78628L5.70716 5.02554L4.16942 5.03487L6.53955 10.0533L6.91287 9.28427C7.03347 9.03585 7.33261 8.93224 7.58103 9.05283C7.82944 9.17343 7.93306 9.47258 7.81246 9.72099L6.52715 12.3686L2.5957 4.04439L6.29306 4.02197Z" fill="white"/>
<path fill-rule="evenodd" clip-rule="evenodd" d="M13.3273 3.53364L8.32218 1.07521C8.11802 0.97493 7.88195 0.97493 7.67779 1.07521L2.67267 3.53364C2.46727 3.63454 2.31021 3.8298 2.25614 4.07144L1.01997 9.59549C0.96577 9.83772 1.02367 10.0897 1.17149 10.2787L4.63514 14.7087C4.78203 14.8965 4.99922 15 5.22235 15H10.7776C11.0007 15 11.2179 14.8965 11.3648 14.7087L14.8285 10.2787C14.9763 10.0897 15.0342 9.83772 14.98 9.59549L13.7438 4.07144C13.6898 3.82979 13.5327 3.63454 13.3273 3.53364ZM8.76305 0.177641C8.28084 -0.0592135 7.71913 -0.0592136 7.23692 0.177641L2.2318 2.63607C1.74959 2.87293 1.39937 3.32086 1.28027 3.85306L0.04411 9.37712C-0.0749862 9.90932 0.0500069 10.4679 0.383707 10.8947L3.84735 15.3246C4.18105 15.7514 4.68714 16 5.22235 16H10.7776C11.3128 16 11.8189 15.7514 12.1526 15.3246L15.6163 10.8947C15.95 10.4679 16.075 9.90932 15.9559 9.37712L14.7197 3.85306C14.6006 3.32086 14.2504 2.87293 13.7682 2.63607L8.76305 0.177641Z" fill="white"/>
<path fill-rule="evenodd" clip-rule="evenodd" d="M9.33459 5.02195C9.58817 5.13128 9.7051 5.42548 9.59576 5.67905L8.74198 7.65921C8.63265 7.91278 8.33845 8.02971 8.08488 7.92038C7.8313 7.81105 7.71437 7.51685 7.8237 7.26327L8.67749 5.28312C8.78682 5.02954 9.08102 4.91261 9.33459 5.02195Z" fill="white"/>
<path fill-rule="evenodd" clip-rule="evenodd" d="M11.4077 4.50146C11.4077 4.22532 11.6315 4.00146 11.9077 4.00146H13.6615L11.8526 7.69044C11.731 7.93838 11.4315 8.04081 11.1835 7.91924C10.9356 7.79766 10.8332 7.49811 10.9547 7.25017L12.0574 5.00146H11.9077C11.6315 5.00146 11.4077 4.77761 11.4077 4.50146Z" fill="white"/>
<path fill-rule="evenodd" clip-rule="evenodd" d="M10.168 10.0629C10.4146 10.1872 10.5137 10.4879 10.3894 10.7345L9.39896 12.6989C9.27464 12.9455 8.97397 13.0446 8.7274 12.9203C8.48082 12.7959 8.38172 12.4953 8.50604 12.2487L9.49648 10.2843C9.6208 10.0377 9.92147 9.9386 10.168 10.0629Z" fill="white"/>
</g>
<defs>
<clipPath id="clip0_1953_1873">
<rect width="16" height="16" fill="white"/>
</clipPath>
</defs>
</svg>
