<?xml version="1.0"?>
<svg width="270" height="260" xmlns="http://www.w3.org/2000/svg" xmlns:svg="http://www.w3.org/2000/svg">
 <title>KubeVirt logo</title>
 <defs>
  <style>.cls-1{fill:none}.cls-3{fill:#fff}</style>
 </defs>
 <g class="layer">
  <title>Layer 1</title>
  <path class="cls-1" d="m13.98,160.37a19.58,19.58 0 0 0 3.15,8.09l38.93,48.11l-38.93,-48.25a18.33,18.33 0 0 1 -3.16,-7.95l0.01,0zm0,0a8.43,8.43 0 0 1 -0.14,-1.78a8.43,8.43 0 0 0 0.14,1.78zm72.51,85.95a14.34,14.34 0 0 1 -2.33,-0.55c0.82,0.14 1.51,0.41 2.33,0.55zm50.72,-233.73c0.55,0.14 1.24,0.14 1.78,0.28c-0.54,-0.14 -1.23,-0.14 -1.78,-0.28zm88.69,41.68a15.03,15.03 0 0 1 2.88,1.92a15.03,15.03 0 0 0 -2.88,-1.92zm29.61,107.47c0,0.28 -0.13,0.55 -0.13,0.82a1.74,1.74 0 0 1 0.13,-0.82zm-116.65,-148.87a8.87,8.87 0 0 1 1.78,0.55c-0.55,-0.14 -1.1,-0.41 -1.78,-0.55zm87.04,41.4l-84.44,-40.44l-0.82,-0.41l0.82,0.41l84.44,40.44zm-88.69,-41.67a16.59,16.59 0 0 0 -2.6,-0.14a33.18,33.18 0 0 0 -5.21,0.27a32.32,32.32 0 0 1 5.21,-0.27a16.59,16.59 0 0 1 2.6,0.14zm-9.59,0.41l-84.45,40.71a12.57,12.57 0 0 0 -2.87,1.78a32.79,32.79 0 0 1 2.87,-1.78l84.45,-40.71z" id="svg_1"/>
  <path class="cls-1" d="m134.88,246.46l-46.61,0a7.82,7.82 0 0 1 -1.78,-0.14a7.82,7.82 0 0 0 1.78,0.14l93.08,0a28.86,28.86 0 0 0 3.43,-0.28a28.86,28.86 0 0 1 -3.43,0.28l-46.47,0zm121.04,-91.44l-21.11,-90.47c-0.13,-0.55 -0.41,-1.1 -0.55,-1.65a7.73,7.73 0 0 1 0.55,1.65l21.11,90.47zm-18.23,31.67l14.81,-18.37a21.82,21.82 0 0 0 1.78,-3.02a21.82,21.82 0 0 1 -1.78,3.02l-14.81,18.37zm-202.74,-122.69l-20.84,91.02l20.84,-91.02a15.06,15.06 0 0 1 5.21,-8.36l0.13,-0.14a14.07,14.07 0 0 0 -5.34,8.5z" id="svg_2"/>
  <path d="m83.89,143.78l-32.9,-67.17l55.51,0l22.21,40.99l-7.67,14.12l-0.28,0.14l-22.48,-41.68l-24.54,0l38.66,81.98l5.48,-10.42a6.9,6.9 0 1 1 12.2,6.44l-10,18.78l-7.68,14.26l22.48,45.1l21.25,-41.95a6.95,6.95 0 0 1 -9.6,1.51a6.67,6.67 0 0 1 -2.05,-8.5l4.93,-9.87a6.76,6.76 0 0 1 9.32,-2.47a6.99,6.99 0 0 1 3.02,8.37l10.01,-19.74a6.86,6.86 0 0 1 -11.66,-7.13l9.87,-19.6a6.84,6.84 0 0 1 12.2,6.16l-2.46,4.8l12.61,-24.95a6.84,6.84 0 0 1 -11.79,-6.85l9.73,-19.6a6.84,6.84 0 0 1 12.2,6.17l-5.48,11.1l15.63,-30.85a6.81,6.81 0 0 1 -9.33,2.61a6.97,6.97 0 0 1 -3.29,-4.52l-8.22,0a6.85,6.85 0 1 1 0,-13.71l28.65,0l-6.85,13.57l16.86,-33.31a14.52,14.52 0 0 0 -1.65,-1.37c-0.96,-0.69 -1.92,-1.37 -2.88,-1.92l-84.44,-40.44l-0.82,-0.41a6.79,6.79 0 0 0 -1.78,-0.55a6.88,6.88 0 0 0 -1.65,-0.27a16.59,16.59 0 0 0 -2.6,-0.14a33.18,33.18 0 0 0 -5.21,0.27c-0.55,0.14 -1.1,0.14 -1.78,0.28l-84.45,40.71a12.57,12.57 0 0 0 -2.87,1.78l-0.14,0.14l43.73,88.14zm68.67,-44.55l12.07,-23.03l4.38,0a6.37,6.37 0 0 1 3.16,0.82a6.95,6.95 0 0 1 2.88,9.32l-10.42,19.33a6.84,6.84 0 1 1 -12.07,-6.44zm-21.11,40.03l10.29,-19.33a6.95,6.95 0 0 1 9.32,-2.88a6.83,6.83 0 0 1 2.88,9.32l-10.28,19.33a6.95,6.95 0 0 1 -9.33,2.88a6.87,6.87 0 0 1 -2.88,-9.32z" fill="#00aab2" id="svg_3"/>
  <path class="cls-3" d="m29.47,62.77l-20.7,91.02l0,0.27a23.1,23.1 0 0 0 3.97,17.41l0.14,0.14l0.14,0.14l58.26,72.38l0.13,0.27l0.28,0.14a25.37,25.37 0 0 0 16.31,7.4l93.35,0c7.27,0 13.3,-2.88 17.14,-7.95l58.39,-72.24l0.14,-0.14l0.14,-0.14a23.82,23.82 0 0 0 4.25,-17.13l-0.14,-0.55l-21.11,-90.61l0,-0.41a23.23,23.23 0 0 0 -11.51,-13.44l-0.28,0l-84.44,-40.44a19.99,19.99 0 0 0 -9.32,-1.91a33.37,33.37 0 0 0 -8.23,0.68l-0.54,0.14l-0.55,0.27l-84.45,40.72a20.57,20.57 0 0 0 -11.37,13.98zm13.84,-9.05l84.31,-40.71a6.88,6.88 0 0 1 1.64,-0.28a34.94,34.94 0 0 1 5.35,-0.27a16.59,16.59 0 0 1 2.6,0.13c0.55,0.14 1.24,0.14 1.78,0.28a8.87,8.87 0 0 1 1.79,0.55l0.82,0.41l84.44,40.44a15.03,15.03 0 0 1 2.88,1.92a14.52,14.52 0 0 1 1.64,1.37a17.23,17.23 0 0 1 3.71,5.21a7.73,7.73 0 0 1 0.54,1.64l21.11,90.61a18.54,18.54 0 0 1 -0.41,6.72c0,0.28 -0.13,0.55 -0.13,0.82a19.25,19.25 0 0 1 -2.75,5.9l-14.8,18.37l-43.59,53.87a14.03,14.03 0 0 1 -9.32,5.48a28.86,28.86 0 0 1 -3.43,0.28l-93.22,0c-0.54,0 -1.23,-0.14 -1.78,-0.14a14.34,14.34 0 0 1 -2.33,-0.55a21.72,21.72 0 0 1 -8.77,-5.07l-19.47,-24.13l-38.79,-48.25a18.22,18.22 0 0 1 -3.15,-8.09a6.67,6.67 0 0 1 -0.14,-1.64a15.63,15.63 0 0 1 0.27,-3.57l20.84,-91.02a15.37,15.37 0 0 1 5.48,-8.5a10.19,10.19 0 0 1 2.88,-1.78z" id="svg_4"/>
  <path d="m134.88,246.46l-22.48,-45.1l-0.27,0.41l-28.24,-57.99l-43.87,-88.14a14.61,14.61 0 0 0 -5.21,8.36l-20.7,91.02a15.63,15.63 0 0 0 -0.27,3.57a8.43,8.43 0 0 0 0.13,1.78a19.58,19.58 0 0 0 3.16,8.09l38.93,48.25l19.46,23.85a20.6,20.6 0 0 0 8.64,5.07a11.61,11.61 0 0 0 2.33,0.55a7.82,7.82 0 0 0 1.78,0.14l46.61,0l0,0.14z" fill="#00797f" id="svg_5"/>
  <path d="m212.74,92.65l-15.62,30.85l-4.25,8.49a3,3 0 0 1 -0.41,0.69l-12.62,24.81l-7.4,14.81c-0.14,0.27 -0.41,0.68 -0.55,0.96l-10,19.87c0,0.14 0,0.14 -0.14,0.28l-4.94,9.87c-0.13,0.27 -0.41,0.68 -0.54,0.96l-21.25,41.94l46.47,0a28.86,28.86 0 0 0 3.43,-0.27a14.35,14.35 0 0 0 9.32,-5.48l43.59,-53.88l14.8,-18.37a17.87,17.87 0 0 0 2.75,-5.89a1.74,1.74 0 0 0 0.13,-0.82a18.36,18.36 0 0 0 0.41,-6.72l-20.97,-90.47c-0.14,-0.55 -0.41,-1.1 -0.55,-1.65a17.23,17.23 0 0 0 -3.7,-5.21l-16.86,33.17l-1.1,2.06z" fill="#3accc5" id="svg_6"/>
  <path class="cls-3" d="m134.2,148.44a6.87,6.87 0 0 0 9.32,-2.88l10.28,-19.32a6.9,6.9 0 0 0 -12.2,-6.45l-10.28,19.33a7.08,7.08 0 0 0 2.88,9.32zm27.55,45.1c0,-0.13 0,-0.13 0.14,-0.27a6.69,6.69 0 0 0 -3.98,-8.77a6.83,6.83 0 0 0 -8.36,3.01l-4.94,9.87a6.86,6.86 0 0 0 3.16,9.19a6.96,6.96 0 0 0 9.18,-3.02l4.8,-10.01zm-49.35,7.82l7.68,-14.26l10,-18.78a6.9,6.9 0 1 0 -12.2,-6.44l-5.48,10.42l-38.66,-82.12l24.54,0l22.48,41.68l0.28,-0.14l7.54,-14.12l-22.21,-41.12l-55.52,0l32.9,67.17l28.51,57.98l0.14,-0.27zm101.3,-110.49l6.86,-13.57l-28.65,0a6.85,6.85 0 1 0 0,13.71l8.22,0a6.9,6.9 0 0 0 8.23,5.21a6.97,6.97 0 0 0 4.52,-3.29l0.14,-0.14l0.68,-1.92zm-16.58,32.76l5.48,-11.1a6.69,6.69 0 0 0 -3.02,-9.19a6.8,6.8 0 0 0 -9.18,3.02l0,0.14l-9.73,19.6a6.86,6.86 0 0 0 3.15,9.18a6.96,6.96 0 0 0 9.18,-3.01l4.12,-8.64zm-17.28,34.14l2.47,-4.8a6.84,6.84 0 0 0 -12.2,-6.17l-9.73,19.6a6.86,6.86 0 0 0 3.15,9.19a6.96,6.96 0 0 0 9.19,-3.02l7.12,-14.8zm-24.4,-49.22a6.71,6.71 0 0 0 9.19,-2.88l10.28,-19.32a6.87,6.87 0 0 0 -2.88,-9.33a6.37,6.37 0 0 0 -3.15,-0.82l-4.25,0l-12.07,23.03a7.12,7.12 0 0 0 2.88,9.32z" id="svg_7"/>
 </g>
</svg>
